<svg xmlns="http://www.w3.org/2000/svg" viewBox="485.732 3145.926 247.768 109.928">
  <defs>
    <style>
      .cls-1 {
        fill: #fff;
      }
    </style>
  </defs>
  <g id="Artevelde_Hogeschool_Logo" data-name="Artevelde Hogeschool Logo" transform="translate(470.962 3076.056)">
    <path id="Path_11" data-name="Path 11" class="cls-1" d="M432.44,222.362h22.492V199.87h-22.4Z" transform="translate(-271.346 -84.456)"/>
    <rect id="Rectangle_8" data-name="Rectangle 8" class="cls-1" width="22.492" height="22.492" transform="translate(161.094 70.431)"/>
    <path id="Path_12" data-name="Path 12" class="cls-1" d="M208.058,69.87a34.018,34.018,0,1,0,0,68.035h34.018V103.9A34.018,34.018,0,0,0,208.058,69.87Zm11.34,45.358h-11.34A11.34,11.34,0,1,1,219.4,103.9Z" transform="translate(-103.472)"/>
    <path id="Path_13" data-name="Path 13" class="cls-1" d="M26.086,341.5H23.22a.515.515,0,0,1-.511-.511v-.41a5.644,5.644,0,0,1-3.559,1.153c-2.228,0-4.379-1.076-4.379-4.4V337.1c0-3,1.92-4.327,6.306-4.327H22.46v-.921c0-1.461-.7-1.752-1.92-1.752-1.64,0-3.454.1-4.25.179h-.126a.417.417,0,0,1-.462-.462V327.74a.571.571,0,0,1,.487-.564,20.637,20.637,0,0,1,4.428-.536c3.686,0,5.991,1.485,5.991,5.224v9.126a.515.515,0,0,1-.522.511Zm-3.559-6.271H21.069c-1.794,0-2.253.613-2.253,1.867v.231c0,1.076.536,1.279,1.612,1.279a4.74,4.74,0,0,0,2.1-.564Z" transform="translate(0 -166.814)"/>
    <path id="Path_14" data-name="Path 14" class="cls-1" d="M66.421,330.033h-.214a6.891,6.891,0,0,0-3.293.911v10.009a.536.536,0,0,1-.511.536h-3.1a.557.557,0,0,1-.536-.536V327.318a.515.515,0,0,1,.511-.512h3.048a.515.515,0,0,1,.511.512v.511A5.483,5.483,0,0,1,66.3,326.6a.511.511,0,0,1,.511.511v2.431C66.8,329.778,66.653,330.033,66.421,330.033Z" transform="translate(-28.585 -166.788)"/>
    <path id="Path_15" data-name="Path 15" class="cls-1" d="M96.393,336.041a11.077,11.077,0,0,1-2.021.2c-2.8,0-4.3-.743-4.3-4.379v-7.431l-2.063-.322a.6.6,0,0,1-.536-.536v-1.689a.557.557,0,0,1,.536-.539h2.049v-2.1a.55.55,0,0,1,.511-.512l3.121-.536h.077a.438.438,0,0,1,.462.434v2.715h2.1a.515.515,0,0,1,.511.511v2.074a.515.515,0,0,1-.5.5h-2.1V331.9c0,1.023.077,1.2.844,1.2H96.34c.333,0,.536.154.536.434v2a.522.522,0,0,1-.483.512Z" transform="translate(-47.231 -161.33)"/>
    <path id="Path_16" data-name="Path 16" class="cls-1" d="M133.56,335.455h-8.18v.063c0,1.457.613,2.8,2.638,2.8,1.612,0,3.892-.126,4.9-.231H133c.28,0,.487.126.487.41v1.923c0,.41-.1.589-.536.7a19.558,19.558,0,0,1-5.255.613c-3.1,0-6.425-1.64-6.425-6.579v-1.794c0-4.12,2.407-6.733,6.478-6.733,4.2,0,6.306,2.866,6.306,6.733v1.485A.485.485,0,0,1,133.56,335.455Zm-3.5-2.663c0-1.9-.869-2.841-2.305-2.841s-2.354.974-2.354,2.841v.1h4.659Z" transform="translate(-69.189 -166.808)"/>
    <path id="Path_17" data-name="Path 17" class="cls-1" d="M176.956,327.746l-3.227,11.607a3.89,3.89,0,0,1-7.4,0l-3.2-11.624a.322.322,0,0,1-.025-.154.41.41,0,0,1,.41-.434H166.9c.256,0,.459.231.536.536l2.2,10.034c.077.385.2.536.385.536s.333-.154.41-.536l2.2-10.034c.077-.308.28-.536.536-.536h3.381a.431.431,0,0,1,.434.434A.326.326,0,0,1,176.956,327.746Z" transform="translate(-96.369 -167.139)"/>
    <path id="Path_18" data-name="Path 18" class="cls-1" d="M220.1,335.455h-8.166v.063c0,1.457.613,2.8,2.638,2.8,1.612,0,3.892-.126,4.9-.231h.077c.28,0,.487.126.487.41v1.923c0,.41-.1.589-.536.7a19.558,19.558,0,0,1-5.255.613c-3.1,0-6.425-1.64-6.425-6.579v-1.794c0-4.12,2.407-6.733,6.478-6.733,4.2,0,6.306,2.866,6.306,6.733v1.485A.5.5,0,0,1,220.1,335.455Zm-3.5-2.663c0-1.9-.869-2.841-2.305-2.841s-2.354.974-2.354,2.841v.1h4.659Z" transform="translate(-125.418 -166.808)"/>
    <path id="Path_19" data-name="Path 19" class="cls-1" d="M257.124,332.64h-3.118a.557.557,0,0,1-.536-.536V313.518a.536.536,0,0,1,.536-.518h3.121a.494.494,0,0,1,.487.511V332.1a.515.515,0,0,1-.49.543Z" transform="translate(-155.075 -157.953)"/>
    <path id="Path_20" data-name="Path 20" class="cls-1" d="M285.976,332.218a24.062,24.062,0,0,1-5.451.666c-4.148,0-6.425-2.407-6.425-6.555v-2c0-4.018,2.1-6.555,6.425-6.555a17.876,17.876,0,0,1,2.1.179v-4.425a.515.515,0,0,1,.512-.512h3.1a.536.536,0,0,1,.536.511v17.944C286.782,331.886,286.677,332.064,285.976,332.218Zm-3.353-10.881a19.261,19.261,0,0,0-2.1-.126c-1.818,0-2.277,1.331-2.277,3.125v1.99c0,1.818.462,3.153,2.277,3.153a14.185,14.185,0,0,0,2.1-.154Z" transform="translate(-168.478 -157.966)"/>
    <path id="Path_21" data-name="Path 21" class="cls-1" d="M331.676,335.455h-8.166v.063c0,1.457.613,2.8,2.638,2.8,1.612,0,3.892-.126,4.9-.231h.077c.28,0,.487.126.487.41v1.923c0,.41-.1.589-.536.7a19.558,19.558,0,0,1-5.255.613c-3.1,0-6.425-1.64-6.425-6.579v-1.794c0-4.12,2.407-6.733,6.478-6.733,4.2,0,6.306,2.866,6.306,6.733v1.485A.5.5,0,0,1,331.676,335.455Zm-3.5-2.663c0-1.9-.869-2.841-2.305-2.841s-2.354.974-2.354,2.841v.1h4.659Z" transform="translate(-197.907 -166.808)"/>
    <path id="Path_22" data-name="Path 22" class="cls-1" d="M379.471,333.38h-1.226a.515.515,0,0,1-.511-.511v-8.408c0-2.561-1.076-3.353-2.74-3.353a9.946,9.946,0,0,0-3.531.7v11.06a.532.532,0,0,1-.511.511H369.7a.508.508,0,0,1-.487-.511V314.652a.494.494,0,0,1,.487-.512h1.279a.494.494,0,0,1,.487.512v5.273a10.689,10.689,0,0,1,3.917-.8c2.715,0,4.607,1.562,4.607,5.325v8.408a.515.515,0,0,1-.515.518Z" transform="translate(-230.267 -158.694)"/>
    <path id="Path_23" data-name="Path 23" class="cls-1" d="M414.082,342.8c-3.763,0-5.682-2.484-5.682-6.246v-1.944c0-3.763,1.92-6.246,5.682-6.246s5.71,2.484,5.71,6.246v1.944C419.789,340.313,417.845,342.8,414.082,342.8Zm3.454-8.191c0-2.61-1.051-4.274-3.454-4.274s-3.43,1.64-3.43,4.274v1.944c0,2.61,1.023,4.274,3.43,4.274s3.454-1.64,3.454-4.274Z" transform="translate(-255.728 -167.932)"/>
    <path id="Path_24" data-name="Path 24" class="cls-1" d="M460.228,330.574l-.921.179a3.587,3.587,0,0,1,.869,2.638v.2c0,2.8-1.752,4.379-5.682,4.379a7.357,7.357,0,0,1-2.971-.511.935.935,0,0,0-.641.869c0,.434.207.666.792.82l3.819.963c2.508.641,4.9,1.356,4.9,3.763v.2c0,2.452-1.64,3.969-5.837,3.969-4.046,0-5.889-1.562-5.889-4.071v-.231a4.148,4.148,0,0,1,1.612-3.251l-.179-.077a2.1,2.1,0,0,1-1.177-2V338.4a2.1,2.1,0,0,1,1.051-1.843,3.773,3.773,0,0,1-1.177-2.971v-.2c0-2.277,1.279-4.53,5.682-4.53h5.605a.592.592,0,0,1,.589.564v.666C460.7,330.419,460.508,330.521,460.228,330.574Zm-2.074,13.313c0-1-.82-1.4-3.121-2l-2.894-.743a3.055,3.055,0,0,0-1.251,2.61v.231c0,1.433.844,2.33,3.686,2.33,2.918,0,3.584-.82,3.584-2.228Zm-.2-10.51c0-1.534-.7-2.74-3.454-2.74-2.869,0-3.458,1.307-3.458,2.74v.2c0,1.128.512,2.61,3.458,2.61,2.764,0,3.454-1.076,3.454-2.61Z" transform="translate(-281.89 -168.25)"/>
    <path id="Path_25" data-name="Path 25" class="cls-1" d="M500.079,336.246h-8.573v.35c0,3.048,1.2,4.172,3.559,4.172a35.12,35.12,0,0,0,4.554-.28h.126a.35.35,0,0,1,.41.35v.869c0,.333-.1.512-.512.589a23.218,23.218,0,0,1-4.582.434c-2.943,0-5.812-1.384-5.812-6.145v-2.305c0-3.661,2.021-5.991,5.682-5.991,3.738,0,5.633,2.354,5.633,5.991v1.384C500.566,336.018,500.373,336.246,500.079,336.246Zm-1.808-1.941c0-2.894-1.1-4.018-3.353-4.018s-3.43,1.254-3.43,4.018v.231h6.783Z" transform="translate(-308.253 -167.886)"/>
    <path id="Path_26" data-name="Path 26" class="cls-1" d="M533.582,342.791a19.858,19.858,0,0,1-4.046-.385c-.333-.077-.536-.231-.536-.511V341a.413.413,0,0,1,.462-.385h.1c1.23.154,3.1.28,4.018.28,1.664,0,2.533-.434,2.533-1.818,0-.767-.462-1.254-1.92-2.123l-2.586-1.534c-1.562-.946-2.61-2.049-2.61-3.661,0-2.663,2-3.405,4.635-3.405a24,24,0,0,1,3.994.333c.35.053.487.231.487.511v.844a.392.392,0,0,1-.434.434H537.6c-.9-.077-2.533-.2-3.969-.2s-2.379.179-2.379,1.485c0,.767.589,1.254,1.752,1.944l2.533,1.51c2.123,1.254,2.8,2.354,2.8,3.854C538.371,341.691,536.452,342.791,533.582,342.791Z" transform="translate(-334.077 -167.925)"/>
    <path id="Path_27" data-name="Path 27" class="cls-1" d="M571.71,342.51a18.57,18.57,0,0,1-3.2.28c-3.482,0-5.451-2.452-5.451-6.222v-2c0-3.763,1.944-6.222,5.451-6.222a18.827,18.827,0,0,1,3.2.28c.41.077.511.2.511.564v.921a.392.392,0,0,1-.434.385h-.1a24.99,24.99,0,0,0-3.174-.179c-2.049,0-3.2,1.356-3.2,4.25v2c0,2.866,1.128,4.25,3.2,4.25a24.989,24.989,0,0,0,3.174-.179h.112a.392.392,0,0,1,.434.385v.921C572.225,342.279,572.12,342.433,571.71,342.51Z" transform="translate(-356.205 -167.925)"/>
    <path id="Path_28" data-name="Path 28" class="cls-1" d="M607.664,333.38h-1.23a.515.515,0,0,1-.512-.511v-8.408c0-2.561-1.076-3.353-2.74-3.353a9.946,9.946,0,0,0-3.531.7v11.06a.532.532,0,0,1-.511.511h-1.254a.508.508,0,0,1-.487-.511V314.652a.494.494,0,0,1,.487-.512h1.279a.49.49,0,0,1,.487.511v5.273a10.689,10.689,0,0,1,3.913-.8c2.715,0,4.607,1.562,4.607,5.325v8.408a.515.515,0,0,1-.508.526Z" transform="translate(-378.514 -158.694)"/>
    <path id="Path_29" data-name="Path 29" class="cls-1" d="M641.532,342.8c-3.763,0-5.682-2.484-5.682-6.246v-1.944c0-3.763,1.92-6.246,5.682-6.246s5.71,2.484,5.71,6.246v1.944C647.243,340.313,645.3,342.8,641.532,342.8Zm3.458-8.191c0-2.61-1.051-4.274-3.458-4.274s-3.43,1.64-3.43,4.274v1.944c0,2.61,1.023,4.274,3.43,4.274s3.458-1.64,3.458-4.274Z" transform="translate(-403.494 -167.932)"/>
    <path id="Path_30" data-name="Path 30" class="cls-1" d="M681.2,342.8c-3.763,0-5.682-2.484-5.682-6.246v-1.944c0-3.763,1.92-6.246,5.682-6.246s5.71,2.484,5.71,6.246v1.944C686.9,340.313,684.965,342.8,681.2,342.8Zm3.454-8.191c0-2.61-1.051-4.274-3.454-4.274s-3.43,1.64-3.43,4.274v1.944c0,2.61,1.023,4.274,3.43,4.274s3.454-1.64,3.454-4.274Z" transform="translate(-429.266 -167.932)"/>
    <path id="Path_31" data-name="Path 31" class="cls-1" d="M717.363,333.361h-1.331a.487.487,0,0,1-.462-.511V314.6a.466.466,0,0,1,.462-.487h1.331a.466.466,0,0,1,.459.487v18.252A.487.487,0,0,1,717.363,333.361Z" transform="translate(-455.284 -158.674)"/>
  </g>
</svg>
