<svg xmlns="http://www.w3.org/2000/svg" viewBox="4528 1349 92.477 74"><defs><style>.a{fill:#fff;}</style></defs><g transform="translate(4518 1241.1)"><g transform="translate(10 107.9)"><path class="a" d="M95.522-1456.1H16.955a6.739,6.739,0,0,1-4.926-2.029A6.666,6.666,0,0,1,10-1463.045v-60.1a6.739,6.739,0,0,1,2.029-4.926,6.672,6.672,0,0,1,4.926-2.029H95.522a6.739,6.739,0,0,1,4.926,2.029,6.672,6.672,0,0,1,2.029,4.926v60.1a6.739,6.739,0,0,1-2.029,4.926,6.679,6.679,0,0,1-4.926,2.019Zm-78.567-69.357a2.27,2.27,0,0,0-1.67.679,2.21,2.21,0,0,0-.679,1.623v60.11a2.21,2.21,0,0,0,.679,1.623,2.271,2.271,0,0,0,1.67.679H95.522a2.271,2.271,0,0,0,1.67-.679,2.21,2.21,0,0,0,.679-1.623v-60.1a2.21,2.21,0,0,0-.679-1.623,2.27,2.27,0,0,0-1.67-.679H16.955ZM53.936-1511.6H26.164a2.21,2.21,0,0,1-1.623-.679,2.21,2.21,0,0,1-.679-1.623,2.27,2.27,0,0,1,.679-1.67,2.21,2.21,0,0,1,1.623-.679H53.936a2.21,2.21,0,0,1,1.623.679,2.27,2.27,0,0,1,.679,1.67,2.21,2.21,0,0,1-.679,1.623,2.21,2.21,0,0,1-1.623.679Zm0,13.871H26.164a2.21,2.21,0,0,1-1.623-.679,2.21,2.21,0,0,1-.679-1.623,2.21,2.21,0,0,1,.679-1.623,2.21,2.21,0,0,1,1.623-.679H53.936a2.21,2.21,0,0,1,1.623.679,2.21,2.21,0,0,1,.679,1.623,2.21,2.21,0,0,1-.679,1.623,2.21,2.21,0,0,1-1.623.679Zm0,9.248H26.164a2.21,2.21,0,0,1-1.623-.679,2.211,2.211,0,0,1-.679-1.623,2.271,2.271,0,0,1,.679-1.67,2.21,2.21,0,0,1,1.623-.679H53.936a2.21,2.21,0,0,1,1.623.679,2.271,2.271,0,0,1,.679,1.67,2.211,2.211,0,0,1-.679,1.623,2.21,2.21,0,0,1-1.623.679Zm0,9.257H26.164a2.21,2.21,0,0,1-1.623-.679,2.27,2.27,0,0,1-.679-1.67,2.21,2.21,0,0,1,.679-1.623,2.21,2.21,0,0,1,1.623-.679H53.936a2.21,2.21,0,0,1,1.623.679,2.21,2.21,0,0,1,.679,1.623,2.27,2.27,0,0,1-.679,1.67,2.21,2.21,0,0,1-1.623.679ZM49.284-1470H26.164a2.21,2.21,0,0,1-1.623-.679,2.21,2.21,0,0,1-.679-1.623,2.21,2.21,0,0,1,.679-1.623,2.21,2.21,0,0,1,1.623-.679H49.284a2.27,2.27,0,0,1,1.67.679,2.21,2.21,0,0,1,.679,1.623,2.21,2.21,0,0,1-.679,1.623,2.271,2.271,0,0,1-1.67.679Zm43.662-39.1-3.746-2.708-1.444-4.426H83.1l-3.746-2.718-3.746,2.708H70.959l-1.444,4.426-3.746,2.708,1.4,4.426-1.4,4.426,3.746,2.755.585,1.85v23.345a2.373,2.373,0,0,0,.387,1.312,2.2,2.2,0,0,0,1.057.859,2.536,2.536,0,0,0,1.331.094,2.248,2.248,0,0,0,1.2-.632l5.284-5.284,5.284,5.284a2.1,2.1,0,0,0,.793.519,2.576,2.576,0,0,0,.878.16,2.017,2.017,0,0,0,.425-.047c.132-.028.283-.057.425-.094a2.161,2.161,0,0,0,1.057-.859,2.373,2.373,0,0,0,.387-1.312v-23.345l.585-1.85,3.746-2.755-1.4-4.426,1.406-4.416Zm-21.76,1.8,2.255-1.67.859-2.661h2.8l2.255-1.623,2.255,1.623h2.8l.859,2.661,2.255,1.67-.859,2.623.859,2.661-2.255,1.67-.859,2.623h-2.8l-2.255,1.67-2.255-1.67H74.3l-.859-2.623-2.255-1.67.859-2.661-.859-2.623Zm9.795,26.412a2.21,2.21,0,0,0-1.623-.679,2.21,2.21,0,0,0-1.623.679l-2.982,3.029v-15.221h.859l3.746,2.718,3.746-2.708h.859v15.211l-2.982-3.029Z" transform="translate(-10 1530.1)"/></g></g></svg>