<svg xmlns="http://www.w3.org/2000/svg" viewBox="6553 1355.583 92.4 85.517"><g transform="translate(6543 1309.083)"><g transform="translate(10 46.5)"><g transform="translate(0 0)"><path d="M13.916,87.279A19.389,19.389,0,0,1,33.282,67.912H99.7L82.065,85.544l1.565,1.565,20.309-20.3L83.63,46.5l-1.565,1.565L99.7,65.687H33.282A21.616,21.616,0,0,0,11.7,87.279V87.5h2.216v-.226Z" transform="translate(-11.54 -46.5)"/><path d="M100.024,518.826a19.4,19.4,0,0,1-19.366,19.366H14.243l17.631-17.631L30.309,519,10,539.3,30.309,559.6l1.565-1.575L14.243,540.408H80.658a21.608,21.608,0,0,0,21.582-21.582V518.6h-2.216v.226Z" transform="translate(-10 -474.088)"/></g></g></g></svg>