<svg xmlns="http://www.w3.org/2000/svg" viewBox="488.481 2471.912 51.379 80.088"><defs><style>.a{fill:#95989a;}</style></defs><g transform="translate(302.781 2461.912)"><path class="a" d="M237.079,57.856c0-7.044-7.412-22.408-15.421-37.96-.572-1.12-1.079-2.092-1.487-2.9-3.089-6.088-6.906-7-8.9-7-3.465,0-6.619,2.493-8.891,7-.36.719-.8,1.585-1.3,2.574-7.992,15.732-15.38,31.267-15.38,38.279a25.713,25.713,0,0,0,23.757,25.6v4.241a2.394,2.394,0,0,0,4.789,0V83.378A25.72,25.72,0,0,0,237.079,57.856ZM213.036,78.679v-7l8.728-8.72a1.2,1.2,0,0,0-1.692-1.692L213.044,68.3V45.067l6.7-6.7a1.2,1.2,0,0,0-1.692-1.692l-5.01,5.01v-3.04a1.193,1.193,0,0,0-2.386,0v5.435l-.074.074a1.2,1.2,0,0,0,0,1.692.384.384,0,0,0,.074.049V58.715l-6.252-6.252a1.2,1.2,0,1,0-1.692,1.692l7.837,7.837c.033.033.074.041.106.074V70.7l-.074.074a1.2,1.2,0,0,0,0,1.692.383.383,0,0,0,.074.049v6.211a20.915,20.915,0,0,1-20.169-20.864c0-6.832,10.8-28.1,14.865-36.113.507-1,.948-1.871,1.316-2.6,1.373-2.738,3.1-4.364,4.609-4.364,1.536,0,3.22,1.594,4.634,4.38.409.809.915,1.8,1.5,2.926,4.454,8.654,14.89,28.913,14.89,35.77A20.937,20.937,0,0,1,213.036,78.679Z" transform="translate(0 0)"/><path class="a" d="M492.193,287.3A1.189,1.189,0,0,0,491,288.493v1.193a1.193,1.193,0,1,0,2.386,0v-1.193A1.189,1.189,0,0,0,492.193,287.3Z" transform="translate(-280.35 -254.638)"/><path class="a" d="M360.56,496.672a1.2,1.2,0,0,0-.016,1.7,1.224,1.224,0,0,0,1.7,0,1.242,1.242,0,0,0,.343-.85,1.168,1.168,0,0,0-.343-.834A1.236,1.236,0,0,0,360.56,496.672Z" transform="translate(-160.24 -446.604)"/></g></svg>