<svg xmlns="http://www.w3.org/2000/svg" viewBox="489.5 1523.494 63 87.464"><defs><style>.a{fill:#95989a;stroke:#95989a;}</style></defs><g transform="translate(341.409 1514.016)"><path class="a" d="M210.591,43.971c0-.1-.009-.185-.009-.273a2.984,2.984,0,0,0-1.155-2.249,2.839,2.839,0,0,0-1.755-.582c-.071,0-.132-.009-.2-.009H187.658l4.349-27.591a2.97,2.97,0,0,0-2.646-3.237,3.248,3.248,0,0,0-2.461.565,3.472,3.472,0,0,0-.741.662l-36.7,42.7a3.5,3.5,0,0,0-.864,2.337v.044a2.838,2.838,0,0,0,.221,1.085,2.884,2.884,0,0,0,.811,1.12,2.546,2.546,0,0,0,.45.309,4.007,4.007,0,0,0,2.143.6H172.9l-5.4,32.892a3.6,3.6,0,0,0-.035.811,3.1,3.1,0,0,0,1.156,2.7,3.412,3.412,0,0,0,4.728-.988l36.42-48.548a4.153,4.153,0,0,0,.714-1.526A3.17,3.17,0,0,0,210.591,43.971ZM179.605,57.1a3.114,3.114,0,0,0,.044-.494c.009-.088.018-.176.018-.265a3.407,3.407,0,0,0-3.634-3.114H158.3L184.13,23.173l-3.246,20.64a2.97,2.97,0,0,0,2.646,3.237,3.689,3.689,0,0,0,.538.044h17.147L175.653,81.15Z" transform="translate(0)"/></g></svg>