<svg xmlns="http://www.w3.org/2000/svg" viewBox="4528 2039.6 91.4 91.4"><g transform="translate(4518 2029.6)"><path d="M55.7,10a45.7,45.7,0,1,0,45.7,45.7A45.75,45.75,0,0,0,55.7,10Zm0,88.733A43.033,43.033,0,1,1,98.733,55.7,43.083,43.083,0,0,1,55.7,98.733Z"/><path d="M278.088,258.2c-7.881,0-13.822,2.593-13.822,6.034v10.259a29.67,29.67,0,0,0-7.144-.811c-8.011,0-13.822,2.537-13.822,6.025v24.286h.345c1.371,2.779,6.734,4.626,13.486,4.626,8,0,13.813-2.537,13.813-6.034v-2.173a29.67,29.67,0,0,0,7.144.811c7.881,0,13.813-2.593,13.813-6.034V264.234c.009-3.432-5.941-6.034-13.813-6.034Zm-13.44,26.637c.485-.131.961-.27,1.436-.448a13.34,13.34,0,0,0,2.341-1.1c.187-.112.354-.233.513-.345v3.5c0,.672-.727,1.436-2.005,2.117a12.952,12.952,0,0,1-2.453.951,26.4,26.4,0,0,1-7.359.961c-7.321,0-11.817-2.35-11.817-4.029v-3.479c2.434,1.753,6.771,2.789,11.817,2.789a29.4,29.4,0,0,0,7.526-.914Zm0,6.724c.494-.131.961-.27,1.436-.448.345-.121.672-.261.989-.4a13.114,13.114,0,0,0,1.53-.821c.112-.075.224-.149.326-.224v4.84c0,.672-.727,1.446-2.005,2.108a12.147,12.147,0,0,1-1.38.616,25.254,25.254,0,0,1-8.431,1.306c-7.321,0-11.817-2.35-11.817-4.029v-4.84c2.425,1.763,6.771,2.8,11.826,2.8a29.412,29.412,0,0,0,7.526-.9Zm-19.343,6.193c2.434,1.763,6.78,2.8,11.817,2.8a25.362,25.362,0,0,0,9.942-1.763,9.212,9.212,0,0,0,1.53-.821q.154-.1.336-.224v4.924c-.14,1.679-4.607,3.954-11.807,3.954-7.321,0-11.817-2.35-11.817-4.029v-4.84Zm22.645-16.583a7.055,7.055,0,0,1-1.306.8c-.242.121-.494.233-.783.345a12.393,12.393,0,0,1-1.38.466,26.255,26.255,0,0,1-7.349.951c-7.321,0-11.817-2.341-11.817-4.02s4.5-4.02,11.817-4.02a26.588,26.588,0,0,1,7.349.951c.588.177,1.017.326,1.39.476,1.921.755,3.068,1.725,3.068,2.593,0,.457-.326.942-.989,1.455Zm-1.669-16.928c0-1.679,4.5-4.029,11.807-4.029s11.817,2.35,11.817,4.029-4.5,4.029-11.817,4.029-11.807-2.35-11.807-4.029Zm0,6.715v-3.488c2.434,1.763,6.771,2.8,11.807,2.8s9.382-1.035,11.817-2.8v3.488c0,1.679-4.5,4.02-11.817,4.02s-11.807-2.341-11.807-4.02Zm0,4.15V274.2c2.434,1.763,6.78,2.8,11.807,2.8s9.382-1.035,11.817-2.8v4.85c0,1.679-4.5,4.029-11.817,4.029a26.983,26.983,0,0,1-7.144-.9v-2.462c0-1.847-1.66-3.479-4.663-4.607Zm4.663,9.159a29.949,29.949,0,0,0,7.144.811c5.046,0,9.382-1.035,11.817-2.8v4.831c0,1.679-4.5,4.029-11.817,4.029a26.882,26.882,0,0,1-7.144-.9v-5.978Zm0,8.067a29.949,29.949,0,0,0,7.144.811c5.036,0,9.382-1.035,11.817-2.807v4.85c0,1.679-4.5,4.02-11.817,4.02a27.286,27.286,0,0,1-7.144-.886v-5.988Z" transform="translate(-211.541 -225.052)"/></g></svg>