<svg xmlns="http://www.w3.org/2000/svg" viewBox="2502.4 1354.6 79 79"><defs><style>.a{fill:#95989a;}</style></defs><g transform="translate(2492.4 1344.6)"><g transform="translate(10 10)"><path class="a" d="M43.513-500.834c-.067.083-1.064,2.046-2.229,4.358l-2.112,4.191-.9.4c-2.129.981-1.53,1.048-6.935-.782l-4.823-1.646-4.557,4.557L17.4-485.2l1.513,4.64,1.513,4.64-.549,1.43-.565,1.43-4.657,2.328L10-468.4v5.488c0,3.01.017,5.921.067,6.436l.067.965,4.291,2.162,4.291,2.179.4.882c.981,2.145,1.048,1.547-.782,6.952l-1.646,4.823,4.557,4.557L25.8-429.4l4.64-1.513,4.64-1.514,1.43.549,1.43.566,2.328,4.657L42.6-422l6.154-.033c3.393-.017,6.27-.05,6.436-.05.183,0,.931-1.314,2.461-4.308l2.179-4.324.882-.4c2.145-.981,1.563-1.065,6.952.782l4.823,1.646,4.557-4.557L81.6-437.8l-1.513-4.64-1.514-4.64.549-1.43.566-1.43,4.657-2.328L89-454.6l-.033-2.744c-.017-1.513-.033-4.407-.033-6.436l-.017-3.692-4.324-2.179-4.308-2.179-.416-.9c-.965-2.129-1.048-1.547.8-6.935l1.646-4.823-4.557-4.557L73.2-493.6l-4.64,1.513-4.64,1.513-1.43-.549-1.43-.565-2.328-4.657L56.4-501h-6.37A56.077,56.077,0,0,0,43.513-500.834Zm12.057,8.665a37.3,37.3,0,0,0,2.245,4.224c.133.067,1.53.632,3.11,1.231l2.861,1.114,4.041-1.314a19.883,19.883,0,0,1,4.291-1.181c.133.066,1.281,1.164,2.561,2.445l2.3,2.312-1.514,4.407-1.5,4.424,1.3,2.961,1.314,2.977,1.563.848c.848.482,2.578,1.38,3.842,2l2.281,1.131L84.243-461v3.576l-4.091,2a37.546,37.546,0,0,0-4.208,2.245c-.067.133-.632,1.547-1.247,3.11l-1.1,2.861,1.014,3.127c.566,1.73,1.164,3.576,1.347,4.108l.316,1L73.815-436.5l-2.478,2.478-4.424-1.514-4.424-1.513-2.96,1.314-2.96,1.314-.765,1.4c-.433.748-1.33,2.478-2,3.825l-1.215,2.462H49l-3.576-.017-2-4.075a34.548,34.548,0,0,0-2.245-4.225c-.133-.067-1.547-.632-3.11-1.247l-2.861-1.1-3.127,1.014c-1.73.566-3.576,1.164-4.108,1.347l-1,.316L24.5-437.186l-2.478-2.478,1.5-4.424,1.513-4.407-1.314-2.977-1.3-2.96-1.563-.848c-.848-.482-2.578-1.381-3.842-2l-2.278-1.131V-462l.017-3.576,4.075-2a37.3,37.3,0,0,0,4.224-2.245c.067-.133.632-1.53,1.231-3.11l1.114-2.861-1.347-4.125-1.347-4.108,2.478-2.478,2.478-2.478,4.407,1.513,4.424,1.5,2.96-1.3,2.977-1.314.765-1.4c.432-.748,1.331-2.478,2-3.842l1.214-2.445H50l3.576.017Z" transform="translate(-10 501)"/><path class="a" d="M294.982-231.346A18.812,18.812,0,0,0,281.461-221.3a16.3,16.3,0,0,0-1.613,10.145c1.5,9.2,10.361,16.117,19.309,15.069,10.877-1.264,18.444-12.424,15.268-22.486C311.764-227.022,303.348-232.543,294.982-231.346Zm5.988,4.973a12.607,12.607,0,0,1,8.466,7.285,12.231,12.231,0,0,1,.981,5.439,11.856,11.856,0,0,1-1.5,6.287,12.653,12.653,0,0,1-8.033,6.287,15.413,15.413,0,0,1-6.969,0,12.492,12.492,0,0,1-8.715-7.667,12.181,12.181,0,0,1-.832-5.073,12.518,12.518,0,0,1,3.825-9.43,12.994,12.994,0,0,1,7.784-3.526A19.479,19.479,0,0,1,300.97-226.373Z" transform="translate(-257.895 253.233)"/></g></g></svg>