<svg xmlns="http://www.w3.org/2000/svg" viewBox="476 1949.912 76 78.088"><defs><style>.a{fill:#95989a;}</style></defs><g transform="translate(452.9 1939.912)"><g transform="translate(23.1 10)"><g transform="translate(0 0)"><path class="a" d="M406.019,426.427a.639.639,0,0,1-.637-.637V414.937a.639.639,0,0,0-.637-.637h-2.406a.639.639,0,0,0-.637.637v14.542a.639.639,0,0,0,.637.637h14.247a.639.639,0,0,0,.637-.637v-2.406a.639.639,0,0,0-.637-.637H406.019Z" transform="translate(-371.533 -382.085)"/><path class="a" d="M667.5,136.46c-2.255-.9-2.908-1.45-2.908-2.438,0-.789.6-1.713,2.287-1.713a6.46,6.46,0,0,1,2.645.59.832.832,0,0,0,.391.1.786.786,0,0,0,.733-.5l.406-1.052a.649.649,0,0,0-.351-.837,15.585,15.585,0,0,0-2.733-.709.138.138,0,0,1-.128-.143l-.008-1.522a.844.844,0,0,0-.853-.829h-.733a.844.844,0,0,0-.853.829v1.6c0,.12-.135.175-.183.183a4.415,4.415,0,0,0-3.681,4.295c0,2.614,2.159,3.793,4.486,4.677,1.865.733,2.622,1.474,2.622,2.558,0,1.187-1.076,2.008-2.622,2.008a9.226,9.226,0,0,1-3.116-.845.809.809,0,0,0-1.108.446l-.39,1.06a.688.688,0,0,0,.351.861,14.061,14.061,0,0,0,3.307.916.184.184,0,0,1,.151.167v1.594a.844.844,0,0,0,.853.829h.757a.844.844,0,0,0,.853-.829v-1.673a.159.159,0,0,1,.135-.175,4.62,4.62,0,0,0,3.9-4.526C671.735,139.105,670.468,137.631,667.5,136.46Z" transform="translate(-610.508 -118.045)"/><path class="a" d="M496.052,10A19.952,19.952,0,1,0,516,29.952,19.951,19.951,0,0,0,496.052,10Zm0,35.283a15.331,15.331,0,1,1,15.331-15.331A15.327,15.327,0,0,1,496.052,45.283Z" transform="translate(-440.004 -10)"/><path class="a" d="M80.813,231.12c-1.028-.016-.821,1.028-.821,1.713a21.605,21.605,0,0,1-.12,2.279A25.48,25.48,0,1,1,53.69,207.168c.295,0,.311-.207.311-.406a16,16,0,0,1,.518-4.773c.239-.789-.127-.789-.191-.789A30.941,30.941,0,0,0,31.1,211.67a31.425,31.425,0,1,0,54.741,23.466c.064-.829.1-1.458.1-2.3,0-.677-.008-1.267-.04-1.833-.016-.335.04-1.124-.669-.8A13.5,13.5,0,0,1,80.813,231.12Z" transform="translate(-23.1 -185.965)"/></g></g></g></svg>