<svg xmlns="http://www.w3.org/2000/svg" viewBox="2502 2224 85.4 69.132"><defs><style>.a{fill:#95989a;}</style></defs><g transform="translate(2492 2120.7)"><path class="a" d="M85.223,103.3H20.169A10.18,10.18,0,0,0,10,113.469v48.795a10.18,10.18,0,0,0,10.169,10.169H85.231A10.18,10.18,0,0,0,95.4,162.263V113.469A10.193,10.193,0,0,0,85.223,103.3Zm6.1,58.963a6.106,6.106,0,0,1-6.1,6.1H20.169a6.106,6.106,0,0,1-6.1-6.1V113.469a6.106,6.106,0,0,1,6.1-6.1H85.231a6.106,6.106,0,0,1,6.1,6.1v48.795Z"/><path class="a" d="M572.9,286.5h22.62v4.069H572.9Z" transform="translate(-513.852 -167.237)"/><path class="a" d="M572.9,473.2h22.62v4.069H572.9Z" transform="translate(-513.852 -337.669)"/><path class="a" d="M176.3,659.8h57.177v4.069H176.3Z" transform="translate(-151.81 -508.01)"/><path class="a" d="M178.389,269.262a10.169,10.169,0,0,1,19.318,4.444h4.06a14.139,14.139,0,0,0-7.7-12.617,10.156,10.156,0,1,0-13.079,0,14.164,14.164,0,0,0-7.685,12.626h4.069A10.047,10.047,0,0,1,178.389,269.262Zm3.05-15.885a6.1,6.1,0,1,1,6.1,6.1A6.106,6.106,0,0,1,181.438,253.377Z" transform="translate(-149.071 -127.71)"/></g></svg>